<svg xmlns="http://www.w3.org/2000/svg" xmlns:xlink="http://www.w3.org/1999/xlink" width="500" zoomAndPan="magnify" viewBox="0 0 375 374.999991" height="500" preserveAspectRatio="xMidYMid meet" version="1.0"><defs><g/><clipPath id="eb9c08b828"><path d="M 78.9375 39 L 294 39 L 294 336 L 78.9375 336 Z M 78.9375 39 " clip-rule="nonzero"/></clipPath></defs><rect x="-37.5" width="450" fill="#ffffff" y="-37.499999" height="449.999989" fill-opacity="1"/><rect x="-37.5" width="450" fill="#ffffff" y="-37.499999" height="449.999989" fill-opacity="1"/><g clip-path="url(#eb9c08b828)"><path fill="#000000" d="M 84.113281 114.566406 C 91.050781 112.453125 98.339844 111.28125 105.339844 110.339844 C 105.457031 110.339844 105.574219 110.222656 105.574219 110.105469 L 104.925781 106.527344 C 104.925781 106.410156 104.808594 106.289062 104.691406 106.289062 C 96.164062 105.644531 87.757812 106.054688 79.464844 107.640625 C 79.40625 107.640625 79.347656 107.582031 79.347656 107.582031 C 79.347656 107.523438 79.347656 107.523438 79.40625 107.523438 C 87.875 105.703125 96.285156 105.058594 104.632812 105.644531 C 104.75 105.644531 104.808594 105.527344 104.808594 105.46875 C 104.046875 97.839844 105.398438 91.089844 107.75 83.925781 C 107.925781 83.457031 107.867188 82.871094 107.691406 82.164062 C 107.398438 80.933594 107.042969 79.699219 106.75 78.410156 C 105.925781 75.121094 106.160156 71.835938 107.457031 68.605469 C 107.515625 68.488281 107.515625 68.371094 107.457031 68.253906 C 106.632812 65.378906 106.160156 62.207031 105.984375 58.804688 C 105.691406 54.050781 105.925781 49.058594 107.277344 44.421875 C 108.042969 41.722656 109.632812 39.375 112.6875 39.492188 C 115.511719 39.609375 118.390625 42.425781 120.214844 44.539062 C 124.449219 49.589844 127.566406 55.046875 130.679688 61.09375 C 131.269531 62.382812 132.210938 63.441406 133.386719 64.261719 C 134.210938 64.851562 134.5625 64.96875 135.5625 64.910156 C 138.621094 64.734375 140.5 64.671875 141.382812 64.671875 C 147.378906 64.671875 152.964844 66.199219 158.730469 68.019531 C 159.257812 68.195312 159.785156 68.078125 160.257812 67.84375 C 161.902344 66.726562 163.136719 65.730469 164.492188 64.144531 C 165.253906 63.265625 166.371094 62.089844 167.726562 60.566406 C 171.429688 56.515625 175.605469 53.285156 180.308594 50.820312 C 181.191406 50.410156 182.25 50.058594 183.542969 49.824219 C 192.890625 48.121094 187.65625 67.082031 186.601562 71.128906 C 185.660156 74.359375 184.660156 76.882812 183.601562 78.761719 C 183.484375 78.878906 183.425781 79.113281 183.425781 79.289062 C 183.308594 84.042969 181.660156 87.800781 179.308594 92.027344 C 179.132812 92.320312 179.074219 92.671875 179.074219 93.082031 C 179.074219 93.140625 179.074219 93.203125 179.074219 93.320312 C 179.777344 99.421875 179.835938 105.175781 178.601562 111.164062 C 178.601562 111.28125 178.660156 111.339844 178.71875 111.398438 C 183.71875 112.394531 188.480469 113.628906 193.007812 115.09375 C 196.949219 116.386719 200.476562 117.972656 203.59375 119.792969 C 203.59375 119.792969 203.59375 119.792969 203.59375 119.851562 C 203.535156 119.851562 203.535156 119.851562 203.535156 119.851562 C 195.773438 115.976562 187.421875 113.628906 178.78125 112.101562 C 178.542969 112.042969 178.367188 112.21875 178.308594 112.394531 L 177.015625 116.445312 C 176.957031 116.621094 177.074219 116.796875 177.25 116.855469 C 183.484375 118.910156 189.597656 121.433594 195.539062 124.488281 C 197.59375 125.542969 199.59375 126.71875 201.476562 128.007812 C 201.535156 128.007812 201.59375 128.066406 201.59375 128.066406 C 201.828125 128.242188 201.945312 128.363281 201.886719 128.421875 C 201.886719 128.421875 201.828125 128.421875 201.828125 128.421875 C 194.949219 124.195312 186.601562 120.554688 176.78125 117.503906 C 176.722656 117.503906 176.664062 117.503906 176.664062 117.5625 L 174.957031 120.4375 C 174.957031 120.496094 174.957031 120.554688 175.015625 120.613281 C 182.601562 123.429688 189.832031 126.835938 196.65625 130.886719 C 197.535156 131.414062 198.59375 132.117188 199.710938 132.941406 C 199.710938 132.941406 199.710938 133 199.710938 133 C 198.828125 132.410156 198.066406 131.941406 197.476562 131.589844 C 190.128906 127.597656 182.777344 124.253906 175.367188 121.550781 C 175.015625 121.433594 174.839844 121.375 174.78125 121.375 C 174.546875 121.375 174.3125 121.609375 174.3125 121.90625 C 174.3125 121.964844 174.3125 122.023438 174.3125 122.082031 C 174.605469 122.902344 175.015625 123.664062 175.605469 124.429688 C 177.074219 126.25 178.542969 127.949219 180.132812 129.535156 C 182.894531 132.292969 185.660156 135.113281 188.363281 137.929688 C 189.1875 138.75 190.949219 140.980469 193.773438 144.679688 C 194.007812 145.089844 194.597656 145.382812 195.539062 145.617188 C 197.773438 146.207031 202.652344 147.554688 210.121094 149.785156 C 215.648438 151.371094 220.410156 153.015625 224.527344 154.71875 C 242.753906 162.347656 259.453125 174.675781 271.269531 190.582031 C 277.035156 198.328125 281.5625 206.253906 284.796875 214.355469 C 294.730469 239.242188 296.4375 268.355469 289.441406 294.183594 C 288.910156 296.0625 288.382812 297.472656 287.96875 298.703125 C 287.792969 299.289062 287.675781 299.820312 287.617188 300.40625 C 287.324219 303.046875 286.972656 305.746094 286.5 308.449219 C 285.089844 317.371094 281.148438 324.589844 273.503906 329.578125 C 269.859375 331.925781 265.921875 333.570312 261.394531 334.449219 C 257.394531 335.15625 253.808594 335.566406 250.574219 335.566406 C 240.695312 335.625 202.417969 335.625 135.738281 335.625 C 132.679688 335.625 128.976562 335.390625 125.449219 335.15625 C 118.039062 334.570312 110.394531 332.984375 103.925781 329.8125 C 87.640625 321.949219 78.9375 305.863281 78.9375 287.902344 C 78.9375 271.234375 88.640625 255.265625 105.398438 251.160156 C 110.984375 249.75 117.039062 250.277344 122.214844 252.742188 C 125.742188 254.386719 128.09375 256.910156 128.210938 260.84375 C 128.269531 264.777344 125.917969 268.179688 121.921875 268.945312 C 119.746094 269.355469 117.453125 268.648438 115.21875 268.414062 C 109.691406 267.886719 104.574219 270.46875 101.339844 274.871094 C 94.929688 283.617188 97.460938 295.769531 103.808594 303.929688 C 109.570312 311.382812 118.628906 315.609375 128.035156 316.488281 C 128.210938 316.546875 128.386719 316.429688 128.386719 316.253906 C 129.152344 311.148438 131.621094 307.742188 137.148438 307.214844 C 137.503906 307.15625 138.089844 307.097656 138.914062 307.097656 C 139.089844 307.039062 139.265625 306.921875 139.324219 306.746094 L 141.382812 296.414062 C 141.441406 296.238281 141.441406 295.945312 141.441406 295.710938 C 140.675781 283.324219 139.207031 271.117188 136.855469 259.257812 C 135.738281 253.566406 134.210938 248.339844 132.269531 243.644531 C 130.796875 240.183594 128.800781 236.074219 126.210938 231.257812 C 122.917969 225.214844 117.980469 216.410156 111.335938 204.785156 C 109.808594 202.085938 108.042969 198.742188 106.101562 194.632812 C 104.105469 190.523438 102.691406 186.941406 101.871094 183.949219 C 99.515625 175.320312 99.457031 166.457031 101.75 157.300781 C 103.632812 149.785156 106.808594 140.921875 107.75 132 C 108.277344 127.480469 108.394531 123.195312 108.160156 119.144531 C 108.160156 119.027344 108.042969 118.910156 107.925781 118.910156 C 107.867188 118.910156 107.867188 118.910156 107.867188 118.910156 C 107.277344 119.085938 106.574219 119.378906 105.691406 119.734375 C 100.046875 122.082031 94.578125 125.074219 89.285156 128.65625 C 89.226562 128.65625 89.226562 128.65625 89.167969 128.65625 C 89.699219 128.066406 90.992188 127.1875 93.050781 125.835938 C 97.753906 122.726562 102.691406 120.203125 107.808594 118.148438 C 107.925781 118.148438 107.984375 118.03125 107.925781 117.914062 L 106.75 114.214844 C 106.691406 114.097656 106.632812 114.039062 106.515625 114.039062 C 97.8125 115.917969 89.167969 118.324219 81.289062 122.257812 C 81.230469 122.257812 81.171875 122.257812 81.171875 122.199219 C 81.171875 122.199219 81.171875 122.199219 81.171875 122.140625 C 83.875 120.613281 86.816406 119.261719 89.992188 118.148438 C 95.226562 116.269531 100.695312 114.683594 106.398438 113.394531 C 106.457031 113.394531 106.457031 113.335938 106.457031 113.277344 C 106.457031 113.21875 106.457031 113.21875 106.457031 113.21875 L 105.75 111.105469 C 105.75 111.046875 105.691406 110.988281 105.632812 110.988281 C 105.632812 110.988281 105.632812 110.988281 105.574219 110.988281 C 99.988281 111.75 97.046875 112.160156 96.871094 112.21875 C 92.226562 113.570312 88.050781 114.566406 84.289062 115.273438 C 84.289062 115.273438 84.289062 115.273438 84.230469 115.273438 C 84.054688 115.273438 83.933594 115.09375 83.933594 114.917969 C 83.933594 114.742188 83.996094 114.625 84.113281 114.566406 Z M 174.722656 284.207031 C 171.605469 294.945312 168.84375 305.921875 166.488281 317.136719 C 166.488281 317.195312 166.550781 317.195312 166.609375 317.195312 L 169.3125 317.195312 C 169.371094 317.195312 169.429688 317.195312 169.429688 317.136719 C 170.078125 313.085938 172.3125 309.503906 176.074219 307.683594 C 179.957031 305.804688 183.484375 306.042969 187.597656 306.335938 C 187.597656 306.335938 187.65625 306.335938 187.65625 306.335938 C 187.777344 306.335938 187.894531 306.21875 187.894531 306.101562 C 187.894531 306.042969 187.894531 305.984375 187.835938 305.984375 C 183.367188 298.996094 179.191406 291.71875 175.191406 284.148438 C 175.132812 284.089844 175.074219 284.03125 174.957031 284.03125 C 174.839844 284.03125 174.722656 284.089844 174.722656 284.207031 Z M 174.722656 284.207031 " fill-opacity="1" fill-rule="evenodd"/></g><g fill="#000000" fill-opacity="1"><g transform="translate(127.907223, 193.124987)"><g><path d="M 1.5 0 L 1.5 -12.078125 L 2.78125 -12.078125 L 2.78125 -5.03125 L 2.984375 -5.03125 L 6.1875 -8.625 L 7.53125 -8.625 L 7.53125 -8.4375 L 4.109375 -4.578125 L 7.859375 -0.203125 L 7.859375 0 L 6.4375 0 L 2.984375 -3.984375 L 2.78125 -3.984375 L 2.78125 0 Z M 1.5 0 "/></g></g></g><g fill="#000000" fill-opacity="1"><g transform="translate(135.920891, 193.124987)"><g><path d="M 3.5625 0.171875 C 2.707031 0.171875 2.039062 -0.0507812 1.5625 -0.5 C 1.09375 -0.945312 0.859375 -1.582031 0.859375 -2.40625 C 0.859375 -2.914062 0.960938 -3.34375 1.171875 -3.6875 C 1.378906 -4.039062 1.703125 -4.328125 2.140625 -4.546875 C 2.585938 -4.773438 3.171875 -4.945312 3.890625 -5.0625 C 4.515625 -5.164062 4.988281 -5.28125 5.3125 -5.40625 C 5.632812 -5.539062 5.851562 -5.6875 5.96875 -5.84375 C 6.082031 -6.007812 6.140625 -6.21875 6.140625 -6.46875 C 6.140625 -6.851562 6.003906 -7.148438 5.734375 -7.359375 C 5.460938 -7.566406 5.03125 -7.671875 4.4375 -7.671875 C 3.882812 -7.671875 3.40625 -7.5625 3 -7.34375 C 2.601562 -7.132812 2.238281 -6.816406 1.90625 -6.390625 L 1.75 -6.390625 L 1.125 -7.265625 C 1.488281 -7.734375 1.953125 -8.101562 2.515625 -8.375 C 3.078125 -8.644531 3.71875 -8.78125 4.4375 -8.78125 C 5.457031 -8.78125 6.207031 -8.554688 6.6875 -8.109375 C 7.164062 -7.671875 7.40625 -7.054688 7.40625 -6.265625 L 7.40625 -1.703125 C 7.40625 -1.222656 7.609375 -0.984375 8.015625 -0.984375 C 8.148438 -0.984375 8.28125 -1.003906 8.40625 -1.046875 L 8.515625 -1.015625 L 8.671875 -0.140625 C 8.578125 -0.078125 8.453125 -0.03125 8.296875 0 C 8.140625 0.0390625 7.984375 0.0625 7.828125 0.0625 C 7.347656 0.0625 6.988281 -0.0390625 6.75 -0.25 C 6.507812 -0.457031 6.351562 -0.765625 6.28125 -1.171875 L 6.125 -1.1875 C 5.875 -0.738281 5.539062 -0.398438 5.125 -0.171875 C 4.707031 0.0546875 4.1875 0.171875 3.5625 0.171875 Z M 3.84375 -0.859375 C 4.320312 -0.859375 4.734375 -0.96875 5.078125 -1.1875 C 5.429688 -1.40625 5.703125 -1.710938 5.890625 -2.109375 C 6.078125 -2.515625 6.171875 -2.984375 6.171875 -3.515625 L 6.171875 -4.609375 L 6.03125 -4.640625 C 5.832031 -4.503906 5.59375 -4.390625 5.3125 -4.296875 C 5.039062 -4.203125 4.660156 -4.117188 4.171875 -4.046875 C 3.671875 -3.984375 3.269531 -3.878906 2.96875 -3.734375 C 2.675781 -3.597656 2.46875 -3.421875 2.34375 -3.203125 C 2.21875 -2.984375 2.15625 -2.71875 2.15625 -2.40625 C 2.15625 -1.894531 2.300781 -1.507812 2.59375 -1.25 C 2.894531 -0.988281 3.3125 -0.859375 3.84375 -0.859375 Z M 3.84375 -0.859375 "/></g></g></g><g fill="#000000" fill-opacity="1"><g transform="translate(144.731239, 193.124987)"><g><path d="M 5.828125 -1.375 L 6.234375 -0.453125 C 6.035156 -0.253906 5.769531 -0.101562 5.4375 0 C 5.101562 0.113281 4.742188 0.171875 4.359375 0.171875 C 2.710938 0.171875 1.890625 -0.664062 1.890625 -2.34375 L 1.890625 -7.578125 L 0.390625 -7.578125 L 0.390625 -8.625 L 1.890625 -8.625 L 1.890625 -10.453125 L 3.171875 -10.65625 L 3.171875 -8.625 L 5.9375 -8.625 L 5.9375 -7.578125 L 3.171875 -7.578125 L 3.171875 -2.46875 C 3.171875 -1.476562 3.597656 -0.984375 4.453125 -0.984375 C 4.921875 -0.984375 5.328125 -1.113281 5.671875 -1.375 Z M 5.828125 -1.375 "/></g></g></g><g fill="#000000" fill-opacity="1"><g transform="translate(151.190593, 193.124987)"><g><path d="M 8.21875 -4.015625 L 2.296875 -4.015625 C 2.328125 -2.972656 2.578125 -2.207031 3.046875 -1.71875 C 3.515625 -1.226562 4.15625 -0.984375 4.96875 -0.984375 C 5.582031 -0.984375 6.078125 -1.09375 6.453125 -1.3125 C 6.828125 -1.53125 7.117188 -1.875 7.328125 -2.34375 L 7.5 -2.34375 L 8.328125 -1.84375 C 8.078125 -1.21875 7.675781 -0.722656 7.125 -0.359375 C 6.570312 -0.00390625 5.851562 0.171875 4.96875 0.171875 C 4.132812 0.171875 3.414062 0.00390625 2.8125 -0.328125 C 2.21875 -0.660156 1.757812 -1.160156 1.4375 -1.828125 C 1.113281 -2.492188 0.953125 -3.320312 0.953125 -4.3125 C 0.953125 -5.289062 1.117188 -6.113281 1.453125 -6.78125 C 1.796875 -7.457031 2.265625 -7.957031 2.859375 -8.28125 C 3.453125 -8.613281 4.128906 -8.78125 4.890625 -8.78125 C 5.992188 -8.78125 6.851562 -8.46875 7.46875 -7.84375 C 8.09375 -7.226562 8.40625 -6.304688 8.40625 -5.078125 C 8.40625 -4.597656 8.394531 -4.273438 8.375 -4.109375 Z M 7.15625 -5.078125 C 7.132812 -5.992188 6.929688 -6.660156 6.546875 -7.078125 C 6.160156 -7.492188 5.609375 -7.703125 4.890625 -7.703125 C 4.128906 -7.703125 3.535156 -7.492188 3.109375 -7.078125 C 2.679688 -6.660156 2.421875 -5.992188 2.328125 -5.078125 Z M 7.15625 -5.078125 "/></g></g></g><g fill="#000000" fill-opacity="1"><g transform="translate(160.375849, 193.124987)"><g><path d="M 3.4375 0.171875 C 2.820312 0.171875 2.335938 0 1.984375 -0.34375 C 1.640625 -0.695312 1.46875 -1.21875 1.46875 -1.90625 L 1.46875 -12.078125 L 2.75 -12.078125 L 2.75 -2 C 2.75 -1.632812 2.816406 -1.375 2.953125 -1.21875 C 3.085938 -1.0625 3.300781 -0.984375 3.59375 -0.984375 C 3.769531 -0.984375 3.953125 -1.007812 4.140625 -1.0625 L 4.25 -1.03125 L 4.390625 -0.03125 C 4.296875 0.03125 4.160156 0.078125 3.984375 0.109375 C 3.816406 0.148438 3.632812 0.171875 3.4375 0.171875 Z M 3.4375 0.171875 "/></g></g></g><g fill="#000000" fill-opacity="1"><g transform="translate(165.062204, 193.124987)"><g><path d="M 1.734375 3.65625 C 1.441406 3.65625 1.164062 3.628906 0.90625 3.578125 C 0.65625 3.535156 0.441406 3.46875 0.265625 3.375 L 0.5 2.375 L 0.640625 2.328125 C 0.765625 2.390625 0.921875 2.441406 1.109375 2.484375 C 1.296875 2.523438 1.488281 2.546875 1.6875 2.546875 C 2.03125 2.546875 2.316406 2.5 2.546875 2.40625 C 2.773438 2.3125 2.972656 2.15625 3.140625 1.9375 C 3.304688 1.726562 3.457031 1.429688 3.59375 1.046875 L 3.90625 0.203125 L 0.4375 -8.625 L 1.8125 -8.625 L 4.53125 -1.59375 L 4.671875 -1.59375 L 7.296875 -8.625 L 8.609375 -8.625 L 4.75 1.359375 C 4.53125 1.910156 4.285156 2.351562 4.015625 2.6875 C 3.742188 3.019531 3.421875 3.265625 3.046875 3.421875 C 2.679688 3.578125 2.242188 3.65625 1.734375 3.65625 Z M 1.734375 3.65625 "/></g></g></g><g fill="#000000" fill-opacity="1"><g transform="translate(174.145929, 193.124987)"><g><path d="M 1.5 0 L 1.5 -8.625 L 2.71875 -8.625 L 2.71875 -7.265625 L 2.875 -7.234375 C 3.164062 -7.734375 3.53125 -8.113281 3.96875 -8.375 C 4.414062 -8.644531 4.960938 -8.78125 5.609375 -8.78125 C 6.640625 -8.78125 7.390625 -8.515625 7.859375 -7.984375 C 8.328125 -7.460938 8.5625 -6.648438 8.5625 -5.546875 L 8.5625 0 L 7.28125 0 L 7.28125 -5.515625 C 7.28125 -6.035156 7.210938 -6.453125 7.078125 -6.765625 C 6.953125 -7.085938 6.75 -7.316406 6.46875 -7.453125 C 6.1875 -7.597656 5.820312 -7.671875 5.375 -7.671875 C 4.59375 -7.671875 3.960938 -7.414062 3.484375 -6.90625 C 3.015625 -6.394531 2.78125 -5.566406 2.78125 -4.421875 L 2.78125 0 Z M 1.5 0 "/></g></g></g><g fill="#000000" fill-opacity="1"><g transform="translate(184.065381, 193.124987)"><g/></g></g><g fill="#000000" fill-opacity="1"><g transform="translate(187.986298, 193.124987)"><g><path d="M 4.953125 0.171875 C 4.191406 0.171875 3.507812 0 2.90625 -0.34375 C 2.300781 -0.695312 1.820312 -1.210938 1.46875 -1.890625 C 1.125 -2.566406 0.953125 -3.375 0.953125 -4.3125 C 0.953125 -5.25 1.125 -6.054688 1.46875 -6.734375 C 1.820312 -7.410156 2.300781 -7.921875 2.90625 -8.265625 C 3.507812 -8.609375 4.191406 -8.78125 4.953125 -8.78125 C 5.859375 -8.78125 6.582031 -8.609375 7.125 -8.265625 C 7.664062 -7.921875 8.054688 -7.460938 8.296875 -6.890625 L 7.421875 -6.265625 L 7.265625 -6.265625 C 7.035156 -6.742188 6.734375 -7.09375 6.359375 -7.3125 C 5.992188 -7.53125 5.523438 -7.640625 4.953125 -7.640625 C 4.421875 -7.640625 3.953125 -7.515625 3.546875 -7.265625 C 3.148438 -7.015625 2.835938 -6.640625 2.609375 -6.140625 C 2.390625 -5.640625 2.28125 -5.03125 2.28125 -4.3125 C 2.28125 -3.59375 2.390625 -2.984375 2.609375 -2.484375 C 2.835938 -1.984375 3.148438 -1.609375 3.546875 -1.359375 C 3.953125 -1.109375 4.421875 -0.984375 4.953125 -0.984375 C 5.546875 -0.984375 6.039062 -1.117188 6.4375 -1.390625 C 6.832031 -1.660156 7.140625 -2.085938 7.359375 -2.671875 L 7.53125 -2.671875 L 8.359375 -2.171875 C 8.140625 -1.453125 7.738281 -0.878906 7.15625 -0.453125 C 6.582031 -0.0351562 5.847656 0.171875 4.953125 0.171875 Z M 4.953125 0.171875 "/></g></g></g><g fill="#000000" fill-opacity="1"><g transform="translate(196.866947, 193.124987)"><g><path d="M 3.5625 0.171875 C 2.707031 0.171875 2.039062 -0.0507812 1.5625 -0.5 C 1.09375 -0.945312 0.859375 -1.582031 0.859375 -2.40625 C 0.859375 -2.914062 0.960938 -3.34375 1.171875 -3.6875 C 1.378906 -4.039062 1.703125 -4.328125 2.140625 -4.546875 C 2.585938 -4.773438 3.171875 -4.945312 3.890625 -5.0625 C 4.515625 -5.164062 4.988281 -5.28125 5.3125 -5.40625 C 5.632812 -5.539062 5.851562 -5.6875 5.96875 -5.84375 C 6.082031 -6.007812 6.140625 -6.21875 6.140625 -6.46875 C 6.140625 -6.851562 6.003906 -7.148438 5.734375 -7.359375 C 5.460938 -7.566406 5.03125 -7.671875 4.4375 -7.671875 C 3.882812 -7.671875 3.40625 -7.5625 3 -7.34375 C 2.601562 -7.132812 2.238281 -6.816406 1.90625 -6.390625 L 1.75 -6.390625 L 1.125 -7.265625 C 1.488281 -7.734375 1.953125 -8.101562 2.515625 -8.375 C 3.078125 -8.644531 3.71875 -8.78125 4.4375 -8.78125 C 5.457031 -8.78125 6.207031 -8.554688 6.6875 -8.109375 C 7.164062 -7.671875 7.40625 -7.054688 7.40625 -6.265625 L 7.40625 -1.703125 C 7.40625 -1.222656 7.609375 -0.984375 8.015625 -0.984375 C 8.148438 -0.984375 8.28125 -1.003906 8.40625 -1.046875 L 8.515625 -1.015625 L 8.671875 -0.140625 C 8.578125 -0.078125 8.453125 -0.03125 8.296875 0 C 8.140625 0.0390625 7.984375 0.0625 7.828125 0.0625 C 7.347656 0.0625 6.988281 -0.0390625 6.75 -0.25 C 6.507812 -0.457031 6.351562 -0.765625 6.28125 -1.171875 L 6.125 -1.1875 C 5.875 -0.738281 5.539062 -0.398438 5.125 -0.171875 C 4.707031 0.0546875 4.1875 0.171875 3.5625 0.171875 Z M 3.84375 -0.859375 C 4.320312 -0.859375 4.734375 -0.96875 5.078125 -1.1875 C 5.429688 -1.40625 5.703125 -1.710938 5.890625 -2.109375 C 6.078125 -2.515625 6.171875 -2.984375 6.171875 -3.515625 L 6.171875 -4.609375 L 6.03125 -4.640625 C 5.832031 -4.503906 5.59375 -4.390625 5.3125 -4.296875 C 5.039062 -4.203125 4.660156 -4.117188 4.171875 -4.046875 C 3.671875 -3.984375 3.269531 -3.878906 2.96875 -3.734375 C 2.675781 -3.597656 2.46875 -3.421875 2.34375 -3.203125 C 2.21875 -2.984375 2.15625 -2.71875 2.15625 -2.40625 C 2.15625 -1.894531 2.300781 -1.507812 2.59375 -1.25 C 2.894531 -0.988281 3.3125 -0.859375 3.84375 -0.859375 Z M 3.84375 -0.859375 "/></g></g></g><g fill="#000000" fill-opacity="1"><g transform="translate(205.778838, 193.124987)"><g><path d="M 1.5 0 L 1.5 -8.625 L 2.71875 -8.625 L 2.71875 -7.265625 L 2.875 -7.234375 C 3.28125 -8.210938 4.035156 -8.703125 5.140625 -8.703125 C 5.734375 -8.703125 6.175781 -8.59375 6.46875 -8.375 L 6.140625 -7.296875 L 5.984375 -7.265625 C 5.660156 -7.429688 5.304688 -7.515625 4.921875 -7.515625 C 4.234375 -7.515625 3.703125 -7.253906 3.328125 -6.734375 C 2.960938 -6.222656 2.78125 -5.390625 2.78125 -4.234375 L 2.78125 0 Z M 1.5 0 "/></g></g></g><g fill="#000000" fill-opacity="1"><g transform="translate(212.433463, 193.124987)"><g><path d="M 1.5 0 L 1.5 -8.625 L 2.71875 -8.625 L 2.71875 -7.265625 L 2.875 -7.234375 C 3.28125 -8.210938 4.035156 -8.703125 5.140625 -8.703125 C 5.734375 -8.703125 6.175781 -8.59375 6.46875 -8.375 L 6.140625 -7.296875 L 5.984375 -7.265625 C 5.660156 -7.429688 5.304688 -7.515625 4.921875 -7.515625 C 4.234375 -7.515625 3.703125 -7.253906 3.328125 -6.734375 C 2.960938 -6.222656 2.78125 -5.390625 2.78125 -4.234375 L 2.78125 0 Z M 1.5 0 "/></g></g></g><g fill="#000000" fill-opacity="1"><g transform="translate(219.088087, 193.124987)"><g><path d="M 2.140625 -10.28125 C 1.867188 -10.28125 1.648438 -10.363281 1.484375 -10.53125 C 1.316406 -10.707031 1.234375 -10.925781 1.234375 -11.1875 C 1.234375 -11.445312 1.316406 -11.660156 1.484375 -11.828125 C 1.648438 -11.992188 1.867188 -12.078125 2.140625 -12.078125 C 2.410156 -12.078125 2.628906 -11.992188 2.796875 -11.828125 C 2.972656 -11.660156 3.0625 -11.445312 3.0625 -11.1875 C 3.0625 -10.925781 2.972656 -10.707031 2.796875 -10.53125 C 2.628906 -10.363281 2.410156 -10.28125 2.140625 -10.28125 Z M 1.5 0 L 1.5 -8.625 L 2.78125 -8.625 L 2.78125 0 Z M 1.5 0 "/></g></g></g><g fill="#000000" fill-opacity="1"><g transform="translate(223.360487, 193.124987)"><g><path d="M 1.5 0 L 1.5 -12.078125 L 2.78125 -12.078125 L 2.78125 -5.03125 L 2.984375 -5.03125 L 6.1875 -8.625 L 7.53125 -8.625 L 7.53125 -8.4375 L 4.109375 -4.578125 L 7.859375 -0.203125 L 7.859375 0 L 6.4375 0 L 2.984375 -3.984375 L 2.78125 -3.984375 L 2.78125 0 Z M 1.5 0 "/></g></g></g><g fill="#000000" fill-opacity="1"><g transform="translate(231.241357, 193.124987)"><g><path d="M 8.21875 -4.015625 L 2.296875 -4.015625 C 2.328125 -2.972656 2.578125 -2.207031 3.046875 -1.71875 C 3.515625 -1.226562 4.15625 -0.984375 4.96875 -0.984375 C 5.582031 -0.984375 6.078125 -1.09375 6.453125 -1.3125 C 6.828125 -1.53125 7.117188 -1.875 7.328125 -2.34375 L 7.5 -2.34375 L 8.328125 -1.84375 C 8.078125 -1.21875 7.675781 -0.722656 7.125 -0.359375 C 6.570312 -0.00390625 5.851562 0.171875 4.96875 0.171875 C 4.132812 0.171875 3.414062 0.00390625 2.8125 -0.328125 C 2.21875 -0.660156 1.757812 -1.160156 1.4375 -1.828125 C 1.113281 -2.492188 0.953125 -3.320312 0.953125 -4.3125 C 0.953125 -5.289062 1.117188 -6.113281 1.453125 -6.78125 C 1.796875 -7.457031 2.265625 -7.957031 2.859375 -8.28125 C 3.453125 -8.613281 4.128906 -8.78125 4.890625 -8.78125 C 5.992188 -8.78125 6.851562 -8.46875 7.46875 -7.84375 C 8.09375 -7.226562 8.40625 -6.304688 8.40625 -5.078125 C 8.40625 -4.597656 8.394531 -4.273438 8.375 -4.109375 Z M 7.15625 -5.078125 C 7.132812 -5.992188 6.929688 -6.660156 6.546875 -7.078125 C 6.160156 -7.492188 5.609375 -7.703125 4.890625 -7.703125 C 4.128906 -7.703125 3.535156 -7.492188 3.109375 -7.078125 C 2.679688 -6.660156 2.421875 -5.992188 2.328125 -5.078125 Z M 7.15625 -5.078125 "/></g></g></g><g fill="#000000" fill-opacity="1"><g transform="translate(240.426614, 193.124987)"><g><path d="M 1.5 0 L 1.5 -8.625 L 2.71875 -8.625 L 2.71875 -7.265625 L 2.875 -7.234375 C 3.28125 -8.210938 4.035156 -8.703125 5.140625 -8.703125 C 5.734375 -8.703125 6.175781 -8.59375 6.46875 -8.375 L 6.140625 -7.296875 L 5.984375 -7.265625 C 5.660156 -7.429688 5.304688 -7.515625 4.921875 -7.515625 C 4.234375 -7.515625 3.703125 -7.253906 3.328125 -6.734375 C 2.960938 -6.222656 2.78125 -5.390625 2.78125 -4.234375 L 2.78125 0 Z M 1.5 0 "/></g></g></g></svg>